<svg xmlns="http://www.w3.org/2000/svg" width="200" height="200"><path d="M 106.49435075337415 10.234620213067956 A 90 90 0 0 1 164.211412731424 36.93737656079694 L 122.03310970963861 72.80547708594563 A 35 35 1 0 0 106.46270043527794 65.6018386671052 Z" stroke="none" fill="rgb(0, 124, 187, .8)" data-cx="126.24306884751655" data-cy="43.27653627056519" data-d="M 106.49435075337415 10.234620213067956 A 90 90 0 1 1 164.211412731424 36.93737656079694 L 164.211412731424 -38.790694116224856 Z"></path><circle r="2" cx="164.211412731424" cy="36.93737656079694" fill="rgb(0, 124, 187, .8)" stroke="rgb(0, 124, 187, 1)" stroke-width="1"></circle><circle r="2" cx="137.79001914042382" cy="18.318212229613863" fill="rgb(0, 124, 187, .8)" stroke="rgb(0, 124, 187, 1)" stroke-width="1"></circle><circle r="2" cx="106.49435075337415" cy="10.234620213067956" fill="rgb(0, 124, 187, .8)" stroke="rgb(0, 124, 187, 1)" stroke-width="1"></circle><circle r="2" cx="143.17732046887915" cy="54.811848929971596" fill="rgb(0, 124, 187, .8)" stroke="rgb(0, 124, 187, 1)" stroke-width="1"></circle><circle r="2" cx="126.24306884751655" cy="43.27653627056519" fill="rgb(0, 124, 187, .8)" stroke="rgb(0, 124, 187, 1)" stroke-width="1"></circle><circle r="2" cx="106.48828900176893" cy="37.83769545914884" fill="rgb(0, 124, 187, .8)" stroke="rgb(0, 124, 187, 1)" stroke-width="1"></circle><circle r="2" cx="122.03310970963861" cy="72.80547708594563" fill="rgb(0, 124, 187, .8)" stroke="rgb(0, 124, 187, 1)" stroke-width="1"></circle><circle r="2" cx="114.69611855460926" cy="68.23486031151651" fill="rgb(0, 124, 187, .8)" stroke="rgb(0, 124, 187, 1)" stroke-width="1"></circle><circle r="2" cx="106.46270043527794" cy="65.6018386671052" fill="rgb(0, 124, 187, .8)" stroke="rgb(0, 124, 187, 1)" stroke-width="1"></circle><path d="M 172.6201199440179 46.836871994619656 A 90 90 0 0 1 179.20948193777286 57.26994066058844 L 139.11865376352705 75.29327385747536 Z" stroke="none" fill="rgb(70, 118, 59, .8)" data-cx="157.60623619232047" data-cy="63.61680771764555" data-d="M 172.6201199440179 46.836871994619656 A 90 90 0 1 1 179.20948193777286 57.26994066058844 L 212.71094811826367 28.81353879773275 Z"></path><circle r="2" cx="179.20948193777286" cy="57.26994066058844" fill="rgb(70, 118, 59, .8)" stroke="rgb(70, 118, 59, 1)" stroke-width="1"></circle><circle r="2" cx="176.09381862111385" cy="51.94034157781575" fill="rgb(70, 118, 59, .8)" stroke="rgb(70, 118, 59, 1)" stroke-width="1"></circle><circle r="2" cx="172.6201199440179" cy="46.836871994619656" fill="rgb(70, 118, 59, .8)" stroke="rgb(70, 118, 59, 1)" stroke-width="1"></circle><circle r="2" cx="159.06217273942983" cy="66.32741548061995" fill="rgb(70, 118, 59, .8)" stroke="rgb(70, 118, 59, 1)" stroke-width="1"></circle><circle r="2" cx="157.60623619232047" cy="63.61680771764555" fill="rgb(70, 118, 59, .8)" stroke="rgb(70, 118, 59, 1)" stroke-width="1"></circle><circle r="2" cx="155.78423930811286" cy="61.13739790322528" fill="rgb(70, 118, 59, .8)" stroke="rgb(70, 118, 59, 1)" stroke-width="1"></circle><circle r="2" cx="139.11865376352705" cy="75.29327385747536" fill="rgb(70, 118, 59, .8)" stroke="rgb(70, 118, 59, 1)" stroke-width="1"></circle><path d="M 184.53527585149564 69.11655562098785 A 90 90 0 0 1 154.98182399970761 171.2530633002201 L 124.38232884712926 125.10979968041259 A 35 35 1 0 0 134.02347671715452 91.79006503818425 Z" stroke="none" fill="rgb(207, 141, 41, .8)" data-cx="160.03720971145617" data-cy="117.37191555536214" data-d="M 184.53527585149564 69.11655562098785 A 90 90 0 1 1 154.98182399970761 171.2530633002201 L 229.8807462296192 137.58131609733732 Z"></path><circle r="2" cx="154.98182399970761" cy="171.2530633002201" fill="rgb(207, 141, 41, .8)" stroke="rgb(207, 141, 41, 1)" stroke-width="1"></circle><circle r="2" cx="186.45358198449688" cy="125.01555839972148" fill="rgb(207, 141, 41, .8)" stroke="rgb(207, 141, 41, 1)" stroke-width="1"></circle><circle r="2" cx="184.53527585149564" cy="69.11655562098785" fill="rgb(207, 141, 41, .8)" stroke="rgb(207, 141, 41, 1)" stroke-width="1"></circle><circle r="2" cx="139.73468625769453" cy="148.24318302105056" fill="rgb(207, 141, 41, .8)" stroke="rgb(207, 141, 41, 1)" stroke-width="1"></circle><circle r="2" cx="160.03720971145617" cy="117.37191555536214" fill="rgb(207, 141, 41, .8)" stroke="rgb(207, 141, 41, 1)" stroke-width="1"></circle><circle r="2" cx="159.35683229167202" cy="80.42919367276042" fill="rgb(207, 141, 41, .8)" stroke="rgb(207, 141, 41, 1)" stroke-width="1"></circle><circle r="2" cx="124.38232884712926" cy="125.10979968041259" fill="rgb(207, 141, 41, .8)" stroke="rgb(207, 141, 41, 1)" stroke-width="1"></circle><circle r="2" cx="133.62083743841544" cy="109.7282727110028" fill="rgb(207, 141, 41, .8)" stroke="rgb(207, 141, 41, 1)" stroke-width="1"></circle><circle r="2" cx="134.02347671715452" cy="91.79006503818425" fill="rgb(207, 141, 41, .8)" stroke="rgb(207, 141, 41, 1)" stroke-width="1"></circle><path d="M 144.1528877270389 178.42526700855726 A 90 90 0 0 1 70.03412711057067 184.86487177846064 L 92.15911854627645 134.11041744143063 A 35 35 1 0 0 113.6061675616285 132.24704954387127 Z" stroke="none" fill="rgb(248, 156, 36, .8)" data-cx="105.40976121878234" data-cy="162.26543570517885" data-d="M 144.1528877270389 178.42526700855726 A 90 90 0 1 1 70.03412711057067 184.86487177846064 L 113.01090033360138 249.7532599730336 Z"></path><circle r="2" cx="70.03412711057067" cy="184.86487177846064" fill="rgb(248, 156, 36, .8)" stroke="rgb(248, 156, 36, 1)" stroke-width="1"></circle><circle r="2" cx="107.79005615504656" cy="189.66222741545752" fill="rgb(248, 156, 36, .8)" stroke="rgb(248, 156, 36, 1)" stroke-width="1"></circle><circle r="2" cx="144.1528877270389" cy="178.42526700855726" fill="rgb(248, 156, 36, .8)" stroke="rgb(248, 156, 36, 1)" stroke-width="1"></circle><circle r="2" cx="81.07334665726253" cy="159.56535732490693" fill="rgb(248, 156, 36, .8)" stroke="rgb(248, 156, 36, 1)" stroke-width="1"></circle><circle r="2" cx="105.40976121878234" cy="162.26543570517885" fill="rgb(248, 156, 36, .8)" stroke="rgb(248, 156, 36, 1)" stroke-width="1"></circle><circle r="2" cx="128.91585758843786" cy="155.40869227770298" fill="rgb(248, 156, 36, .8)" stroke="rgb(248, 156, 36, 1)" stroke-width="1"></circle><circle r="2" cx="92.15911854627645" cy="134.11041744143063" fill="rgb(248, 156, 36, .8)" stroke="rgb(248, 156, 36, 1)" stroke-width="1"></circle><circle r="2" cx="103.0294662825181" cy="134.86864399490014" fill="rgb(248, 156, 36, .8)" stroke="rgb(248, 156, 36, 1)" stroke-width="1"></circle><circle r="2" cx="113.6061675616285" cy="132.24704954387127" fill="rgb(248, 156, 36, .8)" stroke="rgb(248, 156, 36, 1)" stroke-width="1"></circle><path d="M 58.13051366353054 179.66772316264723 A 90 90 0 0 1 19.01385894041165 139.2586927479311 L 70.43700093486684 118.7357702343655 A 35 35 1 0 0 80.31351754211178 128.9385972091817 Z" stroke="none" fill="rgb(225, 21, 132, .8)" data-cx="55.09355398225235" data-cy="143.47023241317117" data-d="M 58.13051366353054 179.66772316264723 A 90 90 0 1 1 19.01385894041165 139.2586927479311 L -10.581934932769457 207.04526495652445 Z"></path><circle r="2" cx="19.01385894041165" cy="139.2586927479311" fill="rgb(225, 21, 132, .8)" stroke="rgb(225, 21, 132, 1)" stroke-width="1"></circle><circle r="2" cx="35.33471773444339" cy="162.59713467496647" fill="rgb(225, 21, 132, .8)" stroke="rgb(225, 21, 132, 1)" stroke-width="1"></circle><circle r="2" cx="58.13051366353054" cy="179.66772316264723" fill="rgb(225, 21, 132, .8)" stroke="rgb(225, 21, 132, 1)" stroke-width="1"></circle><circle r="2" cx="44.65422955381466" cy="129.03611016851528" fill="rgb(225, 21, 132, .8)" stroke="rgb(225, 21, 132, 1)" stroke-width="1"></circle><circle r="2" cx="55.09355398225235" cy="143.47023241317117" fill="rgb(225, 21, 132, .8)" stroke="rgb(225, 21, 132, 1)" stroke-width="1"></circle><circle r="2" cx="69.1808439048339" cy="154.3730596672818" fill="rgb(225, 21, 132, .8)" stroke="rgb(225, 21, 132, 1)" stroke-width="1"></circle><circle r="2" cx="70.43700093486684" cy="118.7357702343655" fill="rgb(225, 21, 132, .8)" stroke="rgb(225, 21, 132, 1)" stroke-width="1"></circle><circle r="2" cx="74.85239023006132" cy="124.34333015137585" fill="rgb(225, 21, 132, .8)" stroke="rgb(225, 21, 132, 1)" stroke-width="1"></circle><circle r="2" cx="80.31351754211178" cy="128.9385972091817" fill="rgb(225, 21, 132, .8)" stroke="rgb(225, 21, 132, 1)" stroke-width="1"></circle><path d="M 14.206244924443055 127.19249142751262 A 90 90 0 0 1 11.769146110940227 82.24284870798849 L 65.12669639515222 97.0246520062166 A 35 35 1 0 0 65.65281689961037 106.72837373131941 Z" stroke="none" fill="rgb(243, 108, 36, .8)" data-cx="37.591661634304764" data-cy="103.38368178658862" data-d="M 14.206244924443055 127.19249142751262 A 90 90 0 1 1 11.769146110940227 82.24284870798849 L -53.71519727544733 108.33419582965067 Z"></path><circle r="2" cx="11.769146110940227" cy="82.24284870798849" fill="rgb(243, 108, 36, .8)" stroke="rgb(243, 108, 36, 1)" stroke-width="1"></circle><circle r="2" cx="10.131992753398862" cy="104.87250177268761" fill="rgb(243, 108, 36, .8)" stroke="rgb(243, 108, 36, 1)" stroke-width="1"></circle><circle r="2" cx="14.206244924443055" cy="127.19249142751262" fill="rgb(243, 108, 36, .8)" stroke="rgb(243, 108, 36, 1)" stroke-width="1"></circle><circle r="2" cx="38.367710748144546" cy="89.62161276615566" fill="rgb(243, 108, 36, .8)" stroke="rgb(243, 108, 36, 1)" stroke-width="1"></circle><circle r="2" cx="37.591661634304764" cy="103.38368178658862" fill="rgb(243, 108, 36, .8)" stroke="rgb(243, 108, 36, 1)" stroke-width="1"></circle><circle r="2" cx="39.85110290896065" cy="116.98117130034197" fill="rgb(243, 108, 36, .8)" stroke="rgb(243, 108, 36, 1)" stroke-width="1"></circle><circle r="2" cx="65.12669639515222" cy="97.0246520062166" fill="rgb(243, 108, 36, .8)" stroke="rgb(243, 108, 36, 1)" stroke-width="1"></circle><circle r="2" cx="65.05133051521067" cy="101.89486180048961" fill="rgb(243, 108, 36, .8)" stroke="rgb(243, 108, 36, 1)" stroke-width="1"></circle><circle r="2" cx="65.65281689961037" cy="106.72837373131941" fill="rgb(243, 108, 36, .8)" stroke="rgb(243, 108, 36, 1)" stroke-width="1"></circle><path d="M 15.243991844692616 69.72758546832667 A 90 90 0 0 1 61.6209228754837 18.59332681487082 L 81.58558114271949 70.23577351670916 A 35 35 1 0 0 68.58460741487617 84.57038209408452 Z" stroke="none" fill="rgb(142, 23, 55, .8)" data-cx="53.70476640192882" data-cy="58.011890420024606" data-d="M 15.243991844692616 69.72758546832667 A 90 90 0 1 1 61.6209228754837 18.59332681487082 L -12.424994259233785 -1.9654208782626554 Z"></path><circle r="2" cx="61.6209228754837" cy="18.59332681487082" fill="rgb(142, 23, 55, .8)" stroke="rgb(142, 23, 55, 1)" stroke-width="1"></circle><circle r="2" cx="33.334863618777504" cy="39.53712220483543" fill="rgb(142, 23, 55, .8)" stroke="rgb(142, 23, 55, 1)" stroke-width="1"></circle><circle r="2" cx="15.243991844692616" cy="69.72758546832667" fill="rgb(142, 23, 55, .8)" stroke="rgb(142, 23, 55, 1)" stroke-width="1"></circle><circle r="2" cx="71.56514691726068" cy="44.342932792294654" fill="rgb(142, 23, 55, .8)" stroke="rgb(142, 23, 55, 1)" stroke-width="1"></circle><circle r="2" cx="53.70476640192882" cy="58.011890420024606" fill="rgb(142, 23, 55, .8)" stroke="rgb(142, 23, 55, 1)" stroke-width="1"></circle><circle r="2" cx="41.83931310122587" cy="77.11803112792164" fill="rgb(142, 23, 55, .8)" stroke="rgb(142, 23, 55, 1)" stroke-width="1"></circle><circle r="2" cx="81.58558114271949" cy="70.23577351670916" fill="rgb(142, 23, 55, .8)" stroke="rgb(142, 23, 55, 1)" stroke-width="1"></circle><circle r="2" cx="74.07466918508014" cy="76.48665863521379" fill="rgb(142, 23, 55, .8)" stroke="rgb(142, 23, 55, 1)" stroke-width="1"></circle><circle r="2" cx="68.58460741487617" cy="84.57038209408452" fill="rgb(142, 23, 55, .8)" stroke="rgb(142, 23, 55, 1)" stroke-width="1"></circle><path d="M 73.73849642431081 13.916706441121434 A 90 90 0 0 1 93.50564924662585 10.234620213067942 L 93.50564924662588 65.13530214322877 Z" stroke="none" fill="rgb(252, 182, 21, .8)" data-cx="88.51228553362941" data-cy="38.32860140379944" data-d="M 73.73849642431081 13.916706441121434 A 90 90 0 1 1 93.50564924662585 10.234620213067942 L 73.73849642431078 -40.983975489039395 Z"></path><circle r="2" cx="93.50564924662585" cy="10.234620213067942" fill="rgb(252, 182, 21, .8)" stroke="rgb(252, 182, 21, 1)" stroke-width="1"></circle><circle r="2" cx="83.51892182063293" cy="11.521900664370108" fill="rgb(252, 182, 21, .8)" stroke="rgb(252, 182, 21, 1)" stroke-width="1"></circle><circle r="2" cx="73.73849642431081" cy="13.916706441121434" fill="rgb(252, 182, 21, .8)" stroke="rgb(252, 182, 21, 1)" stroke-width="1"></circle><circle r="2" cx="93.50564924662588" cy="37.86750271416609" fill="rgb(252, 182, 21, .8)" stroke="rgb(252, 182, 21, 1)" stroke-width="1"></circle><circle r="2" cx="88.51228553362941" cy="38.32860140379944" fill="rgb(252, 182, 21, .8)" stroke="rgb(252, 182, 21, 1)" stroke-width="1"></circle><circle r="2" cx="83.6877974551274" cy="39.696303108208525" fill="rgb(252, 182, 21, .8)" stroke="rgb(252, 182, 21, 1)" stroke-width="1"></circle><circle r="2" cx="93.50564924662588" cy="65.13530214322877" fill="rgb(252, 182, 21, .8)" stroke="rgb(252, 182, 21, 1)" stroke-width="1"></circle></svg>