<svg xmlns="http://www.w3.org/2000/svg" width="200" height="200"><path d="M 100 10 A 90 90 0 0 1 168.59458496148727 41.73523436963552 L 126.67567192946728 77.34148003263604 A 35 35 1 0 0 100 65 Z" stroke="none" fill="rgb(0, 124, 187, .8)" data-cx="126.24306884751654" data-cy="43.27653627056519" data-d="M 100 10 A 90 90 0 1 1 168.59458496148727 41.73523436963552 L 100 100 Z"></path><circle r="2" cx="168.59458496148727" cy="41.73523436963552" fill="rgb(0, 124, 187, .8)" stroke="rgb(0, 124, 187, 1)" stroke-width="1"></circle><circle r="2" cx="137.79001914042382" cy="18.318212229613863" fill="rgb(0, 124, 187, .8)" stroke="rgb(0, 124, 187, 1)" stroke-width="1"></circle><circle r="2" cx="100" cy="10" fill="rgb(0, 124, 187, .8)" stroke="rgb(0, 124, 187, 1)" stroke-width="1"></circle><circle r="2" cx="147.63512844547728" cy="59.538357201135774" fill="rgb(0, 124, 187, .8)" stroke="rgb(0, 124, 187, 1)" stroke-width="1"></circle><circle r="2" cx="126.24306884751654" cy="43.27653627056519" fill="rgb(0, 124, 187, .8)" stroke="rgb(0, 124, 187, 1)" stroke-width="1"></circle><circle r="2" cx="100" cy="37.5" fill="rgb(0, 124, 187, .8)" stroke="rgb(0, 124, 187, 1)" stroke-width="1"></circle><circle r="2" cx="126.67567192946728" cy="77.34148003263604" fill="rgb(0, 124, 187, .8)" stroke="rgb(0, 124, 187, 1)" stroke-width="1"></circle><circle r="2" cx="114.69611855460926" cy="68.23486031151651" fill="rgb(0, 124, 187, .8)" stroke="rgb(0, 124, 187, 1)" stroke-width="1"></circle><circle r="2" cx="100" cy="65" fill="rgb(0, 124, 187, .8)" stroke="rgb(0, 124, 187, 1)" stroke-width="1"></circle><path d="M 168.59458496148727 41.73523436963552 A 90 90 0 0 1 182.0863691325883 63.097046153072554 L 131.92247688489545 85.64885128175044 A 35 35 1 0 0 126.67567192946728 77.34148003263604 Z" stroke="none" fill="rgb(70, 118, 59, .8)" data-cx="152.84292959799575" data-cy="66.62523720681651" data-d="M 168.59458496148727 41.73523436963552 A 90 90 0 1 1 182.0863691325883 63.097046153072554 L 100 100 Z"></path><circle r="2" cx="182.0863691325883" cy="63.097046153072554" fill="rgb(70, 118, 59, .8)" stroke="rgb(70, 118, 59, 1)" stroke-width="1"></circle><circle r="2" cx="176.09381862111388" cy="51.94034157781576" fill="rgb(70, 118, 59, .8)" stroke="rgb(70, 118, 59, 1)" stroke-width="1"></circle><circle r="2" cx="168.59458496148727" cy="41.73523436963552" fill="rgb(70, 118, 59, .8)" stroke="rgb(70, 118, 59, 1)" stroke-width="1"></circle><circle r="2" cx="157.00442300874187" cy="74.3729487174115" fill="rgb(70, 118, 59, .8)" stroke="rgb(70, 118, 59, 1)" stroke-width="1"></circle><circle r="2" cx="152.84292959799575" cy="66.62523720681651" fill="rgb(70, 118, 59, .8)" stroke="rgb(70, 118, 59, 1)" stroke-width="1"></circle><circle r="2" cx="147.63512844547728" cy="59.538357201135774" fill="rgb(70, 118, 59, .8)" stroke="rgb(70, 118, 59, 1)" stroke-width="1"></circle><circle r="2" cx="131.92247688489545" cy="85.64885128175044" fill="rgb(70, 118, 59, .8)" stroke="rgb(70, 118, 59, 1)" stroke-width="1"></circle><circle r="2" cx="129.59204057487761" cy="81.31013283581724" fill="rgb(70, 118, 59, .8)" stroke="rgb(70, 118, 59, 1)" stroke-width="1"></circle><circle r="2" cx="126.67567192946728" cy="77.34148003263604" fill="rgb(70, 118, 59, .8)" stroke="rgb(70, 118, 59, 1)" stroke-width="1"></circle><path d="M 182.0863691325883 63.097046153072554 A 90 90 0 0 1 149.69691030431125 175.0347726471217 L 119.32657622945436 129.18018936276957 A 35 35 1 0 0 131.92247688489545 85.64885128175044 Z" stroke="none" fill="rgb(207, 141, 41, .8)" data-cx="160.03720971145617" data-cy="117.37191555536214" data-d="M 182.0863691325883 63.097046153072554 A 90 90 0 1 1 149.69691030431125 175.0347726471217 L 100 100 Z"></path><circle r="2" cx="149.69691030431125" cy="175.0347726471217" fill="rgb(207, 141, 41, .8)" stroke="rgb(207, 141, 41, 1)" stroke-width="1"></circle><circle r="2" cx="186.45358198449688" cy="125.01555839972148" fill="rgb(207, 141, 41, .8)" stroke="rgb(207, 141, 41, 1)" stroke-width="1"></circle><circle r="2" cx="182.0863691325883" cy="63.097046153072554" fill="rgb(207, 141, 41, .8)" stroke="rgb(207, 141, 41, 1)" stroke-width="1"></circle><circle r="2" cx="134.5117432668828" cy="152.10748100494564" fill="rgb(207, 141, 41, .8)" stroke="rgb(207, 141, 41, 1)" stroke-width="1"></circle><circle r="2" cx="160.03720971145617" cy="117.37191555536214" fill="rgb(207, 141, 41, .8)" stroke="rgb(207, 141, 41, 1)" stroke-width="1"></circle><circle r="2" cx="157.00442300874187" cy="74.37294871741149" fill="rgb(207, 141, 41, .8)" stroke="rgb(207, 141, 41, 1)" stroke-width="1"></circle><circle r="2" cx="119.32657622945436" cy="129.18018936276957" fill="rgb(207, 141, 41, .8)" stroke="rgb(207, 141, 41, 1)" stroke-width="1"></circle><circle r="2" cx="133.62083743841544" cy="109.7282727110028" fill="rgb(207, 141, 41, .8)" stroke="rgb(207, 141, 41, 1)" stroke-width="1"></circle><circle r="2" cx="131.92247688489545" cy="85.64885128175044" fill="rgb(207, 141, 41, .8)" stroke="rgb(207, 141, 41, 1)" stroke-width="1"></circle><path d="M 149.69691030431122 175.0347726471217 A 90 90 0 0 1 63.9884421718222 182.48131729542035 L 85.99550528904197 132.0760678371079 A 35 35 1 0 0 119.32657622945436 129.18018936276957 Z" stroke="none" fill="rgb(248, 156, 36, .8)" data-cx="105.40976121878234" data-cy="162.26543570517885" data-d="M 149.69691030431122 175.0347726471217 A 90 90 0 1 1 63.9884421718222 182.48131729542035 L 100 100 Z"></path><circle r="2" cx="63.9884421718222" cy="182.48131729542035" fill="rgb(248, 156, 36, .8)" stroke="rgb(248, 156, 36, 1)" stroke-width="1"></circle><circle r="2" cx="107.79005615504656" cy="189.66222741545752" fill="rgb(248, 156, 36, .8)" stroke="rgb(248, 156, 36, 1)" stroke-width="1"></circle><circle r="2" cx="149.69691030431122" cy="175.0347726471217" fill="rgb(248, 156, 36, .8)" stroke="rgb(248, 156, 36, 1)" stroke-width="1"></circle><circle r="2" cx="74.99197373043208" cy="157.2786925662641" fill="rgb(248, 156, 36, .8)" stroke="rgb(248, 156, 36, 1)" stroke-width="1"></circle><circle r="2" cx="105.40976121878234" cy="162.26543570517885" fill="rgb(248, 156, 36, .8)" stroke="rgb(248, 156, 36, 1)" stroke-width="1"></circle><circle r="2" cx="134.51174326688277" cy="152.10748100494564" fill="rgb(248, 156, 36, .8)" stroke="rgb(248, 156, 36, 1)" stroke-width="1"></circle><circle r="2" cx="85.99550528904197" cy="132.0760678371079" fill="rgb(248, 156, 36, .8)" stroke="rgb(248, 156, 36, 1)" stroke-width="1"></circle><circle r="2" cx="103.0294662825181" cy="134.86864399490014" fill="rgb(248, 156, 36, .8)" stroke="rgb(248, 156, 36, 1)" stroke-width="1"></circle><circle r="2" cx="119.32657622945436" cy="129.18018936276957" fill="rgb(248, 156, 36, .8)" stroke="rgb(248, 156, 36, 1)" stroke-width="1"></circle><path d="M 63.98844217182222 182.48131729542035 A 90 90 0 0 1 16.39209521648877 133.3124339805923 L 67.4858148064123 112.954835436897 A 35 35 1 0 0 85.99550528904197 132.07606783710793 Z" stroke="none" fill="rgb(225, 21, 132, .8)" data-cx="55.09355398225235" data-cy="143.47023241317117" data-d="M 63.98844217182222 182.48131729542035 A 90 90 0 1 1 16.39209521648877 133.3124339805923 L 100 100 Z"></path><circle r="2" cx="16.39209521648877" cy="133.3124339805923" fill="rgb(225, 21, 132, .8)" stroke="rgb(225, 21, 132, 1)" stroke-width="1"></circle><circle r="2" cx="35.33471773444339" cy="162.59713467496647" fill="rgb(225, 21, 132, .8)" stroke="rgb(225, 21, 132, 1)" stroke-width="1"></circle><circle r="2" cx="63.98844217182222" cy="182.48131729542035" fill="rgb(225, 21, 132, .8)" stroke="rgb(225, 21, 132, 1)" stroke-width="1"></circle><circle r="2" cx="41.93895501145054" cy="123.13363470874465" fill="rgb(225, 21, 132, .8)" stroke="rgb(225, 21, 132, 1)" stroke-width="1"></circle><circle r="2" cx="55.09355398225235" cy="143.47023241317117" fill="rgb(225, 21, 132, .8)" stroke="rgb(225, 21, 132, 1)" stroke-width="1"></circle><circle r="2" cx="74.9919737304321" cy="157.27869256626414" fill="rgb(225, 21, 132, .8)" stroke="rgb(225, 21, 132, 1)" stroke-width="1"></circle><circle r="2" cx="67.4858148064123" cy="112.954835436897" fill="rgb(225, 21, 132, .8)" stroke="rgb(225, 21, 132, 1)" stroke-width="1"></circle><circle r="2" cx="74.85239023006132" cy="124.34333015137585" fill="rgb(225, 21, 132, .8)" stroke="rgb(225, 21, 132, 1)" stroke-width="1"></circle><circle r="2" cx="85.99550528904197" cy="132.07606783710793" fill="rgb(225, 21, 132, .8)" stroke="rgb(225, 21, 132, 1)" stroke-width="1"></circle><path d="M 16.39209521648877 133.3124339805923 A 90 90 0 0 1 13.280500673269927 75.92244953237015 L 66.2757502618272 90.63650815147727 A 35 35 1 0 0 67.4858148064123 112.954835436897 Z" stroke="none" fill="rgb(243, 108, 36, .8)" data-cx="37.591661634304764" data-cy="103.38368178658862" data-d="M 16.39209521648877 133.3124339805923 A 90 90 0 1 1 13.280500673269927 75.92244953237015 L 100 100 Z"></path><circle r="2" cx="13.280500673269927" cy="75.92244953237015" fill="rgb(243, 108, 36, .8)" stroke="rgb(243, 108, 36, 1)" stroke-width="1"></circle><circle r="2" cx="10.131992753398862" cy="104.87250177268761" fill="rgb(243, 108, 36, .8)" stroke="rgb(243, 108, 36, 1)" stroke-width="1"></circle><circle r="2" cx="16.39209521648877" cy="133.3124339805923" fill="rgb(243, 108, 36, .8)" stroke="rgb(243, 108, 36, 1)" stroke-width="1"></circle><circle r="2" cx="39.77812546754856" cy="83.27947884192372" fill="rgb(243, 108, 36, .8)" stroke="rgb(243, 108, 36, 1)" stroke-width="1"></circle><circle r="2" cx="37.591661634304764" cy="103.38368178658862" fill="rgb(243, 108, 36, .8)" stroke="rgb(243, 108, 36, 1)" stroke-width="1"></circle><circle r="2" cx="41.93895501145054" cy="123.13363470874465" fill="rgb(243, 108, 36, .8)" stroke="rgb(243, 108, 36, 1)" stroke-width="1"></circle><circle r="2" cx="66.2757502618272" cy="90.63650815147727" fill="rgb(243, 108, 36, .8)" stroke="rgb(243, 108, 36, 1)" stroke-width="1"></circle><circle r="2" cx="65.05133051521067" cy="101.89486180048962" fill="rgb(243, 108, 36, .8)" stroke="rgb(243, 108, 36, 1)" stroke-width="1"></circle><circle r="2" cx="67.4858148064123" cy="112.954835436897" fill="rgb(243, 108, 36, .8)" stroke="rgb(243, 108, 36, 1)" stroke-width="1"></circle><path d="M 13.280500673269941 75.92244953237011 A 90 90 0 0 1 67.59523394861515 16.036131954542398 L 87.39814653557255 67.34738464898871 A 35 35 1 0 0 66.2757502618272 90.63650815147726 Z" stroke="none" fill="rgb(142, 23, 55, .8)" data-cx="53.70476640192882" data-cy="58.011890420024606" data-d="M 13.280500673269941 75.92244953237011 A 90 90 0 1 1 67.59523394861515 16.036131954542398 L 100 100 Z"></path><circle r="2" cx="67.59523394861515" cy="16.036131954542398" fill="rgb(142, 23, 55, .8)" stroke="rgb(142, 23, 55, 1)" stroke-width="1"></circle><circle r="2" cx="33.334863618777504" cy="39.53712220483543" fill="rgb(142, 23, 55, .8)" stroke="rgb(142, 23, 55, 1)" stroke-width="1"></circle><circle r="2" cx="13.280500673269941" cy="75.92244953237011" fill="rgb(142, 23, 55, .8)" stroke="rgb(142, 23, 55, 1)" stroke-width="1"></circle><circle r="2" cx="77.49669024209385" cy="41.69175830176555" fill="rgb(142, 23, 55, .8)" stroke="rgb(142, 23, 55, 1)" stroke-width="1"></circle><circle r="2" cx="53.70476640192882" cy="58.011890420024606" fill="rgb(142, 23, 55, .8)" stroke="rgb(142, 23, 55, 1)" stroke-width="1"></circle><circle r="2" cx="39.77812546754857" cy="83.27947884192369" fill="rgb(142, 23, 55, .8)" stroke="rgb(142, 23, 55, 1)" stroke-width="1"></circle><circle r="2" cx="87.39814653557255" cy="67.34738464898871" fill="rgb(142, 23, 55, .8)" stroke="rgb(142, 23, 55, 1)" stroke-width="1"></circle><circle r="2" cx="74.07466918508014" cy="76.48665863521379" fill="rgb(142, 23, 55, .8)" stroke="rgb(142, 23, 55, 1)" stroke-width="1"></circle><circle r="2" cx="66.2757502618272" cy="90.63650815147726" fill="rgb(142, 23, 55, .8)" stroke="rgb(142, 23, 55, 1)" stroke-width="1"></circle><path d="M 67.59523394861509 16.036131954542427 A 90 90 0 0 1 99.99999999999999 10 L 100 65 A 35 35 1 0 0 87.39814653557254 67.34738464898872 Z" stroke="none" fill="rgb(252, 182, 21, .8)" data-cx="88.55480681988398" data-cy="38.55687546136813" data-d="M 67.59523394861509 16.036131954542427 A 90 90 0 1 1 99.99999999999999 10 L 100 100 Z"></path><circle r="2" cx="99.99999999999999" cy="10" fill="rgb(252, 182, 21, .8)" stroke="rgb(252, 182, 21, 1)" stroke-width="1"></circle><circle r="2" cx="83.51892182063293" cy="11.521900664370108" fill="rgb(252, 182, 21, .8)" stroke="rgb(252, 182, 21, 1)" stroke-width="1"></circle><circle r="2" cx="67.59523394861509" cy="16.036131954542427" fill="rgb(252, 182, 21, .8)" stroke="rgb(252, 182, 21, 1)" stroke-width="1"></circle><circle r="2" cx="99.99999999999999" cy="37.5" fill="rgb(252, 182, 21, .8)" stroke="rgb(252, 182, 21, 1)" stroke-width="1"></circle><circle r="2" cx="88.55480681988398" cy="38.55687546136813" fill="rgb(252, 182, 21, .8)" stroke="rgb(252, 182, 21, 1)" stroke-width="1"></circle><circle r="2" cx="77.4966902420938" cy="41.691758301765574" fill="rgb(252, 182, 21, .8)" stroke="rgb(252, 182, 21, 1)" stroke-width="1"></circle><circle r="2" cx="100" cy="65" fill="rgb(252, 182, 21, .8)" stroke="rgb(252, 182, 21, 1)" stroke-width="1"></circle><circle r="2" cx="93.59069181913503" cy="65.59185025836615" fill="rgb(252, 182, 21, .8)" stroke="rgb(252, 182, 21, 1)" stroke-width="1"></circle><circle r="2" cx="87.39814653557254" cy="67.34738464898872" fill="rgb(252, 182, 21, .8)" stroke="rgb(252, 182, 21, 1)" stroke-width="1"></circle></svg>