
<svg width="200" height="200" xmlns="http://www.w3.org/2000/svg"><path d="M 101.24996467902844 4.0081379058558895 A 96 96 0 0 1 123.63714891939654 6.9554666250495245 L 117.42481632150769 30.140313655429864 A 72 72 1 0 0 101.2499372075757 28.01085042190651 Z" fill="rgb(27, 137, 123, .8)" stroke="rgb(27, 137, 123, 1)" stroke-width="1  " stroke-linejoin="" stroke-linecap=""></path><path d="M 126.05189525024196 7.602495954325576 A 96 96 0 0 1 146.91342988120016 16.24362653038446 L 134.91209741415082 37.03059906474539 A 72 72 1 0 0 119.83950958158171 30.78732876443557 Z" fill="rgb(27, 137, 123, .8)" stroke="rgb(27, 137, 123, 1)" stroke-width="1  " stroke-linejoin="" stroke-linecap=""></path><path d="M 149.07843221294394 17.493591209412912 A 96 96 0 0 1 166.99263812470852 31.239644873722114 L 150.02017676298846 48.212145085943256 A 72 72 1 0 0 137.07705216394265 38.28053627232108 Z" fill="rgb(27, 137, 123, .8)" stroke="rgb(27, 137, 123, 1)" stroke-width="1  " stroke-linejoin="" stroke-linecap=""></path><path d="M 168.7603551262779 33.00736187529148 A 96 96 0 0 1 182.5064087905871 50.92156778705605 L 161.7194637276789 62.922947836057325 A 72 72 1 0 0 151.78785491405674 49.97982323701155 Z" fill="rgb(27, 137, 123, .8)" stroke="rgb(27, 137, 123, 1)" stroke-width="1  " stroke-linejoin="" stroke-linecap=""></path><path d="M 183.75637346961554 53.086570118799834 A 96 96 0 0 1 192.39750404567442 73.94810474975804 L 169.21267123556441 80.1604904184183 A 72 72 1 0 0 162.9694009352546 65.08790258584918 Z" fill="rgb(27, 137, 123, .8)" stroke="rgb(27, 137, 123, 1)" stroke-width="1  " stroke-linejoin="" stroke-linecap=""></path><path d="M 193.04453337495045 76.36285108060345 A 96 96 0 0 1 195.9918620941441 98.75003532097153 L 171.98914957809347 98.7500627924243 A 72 72 1 0 0 169.85968634457015 82.5751836784923 Z" fill="rgb(27, 137, 123, .8)" stroke="rgb(27, 137, 123, 1)" stroke-width="1  " stroke-linejoin="" stroke-linecap=""></path><path d="M 195.9918620941441 101.24996467902842 A 96 96 0 0 1 193.04453337495048 123.63714891939651 L 169.85968634457015 117.42481632150768 A 72 72 1 0 0 171.98914957809347 101.24993720757567 Z" fill="rgb(27, 137, 123, .8)" stroke="rgb(27, 137, 123, 1)" stroke-width="1  " stroke-linejoin="" stroke-linecap=""></path><path d="M 192.39750404567445 126.05189525024193 A 96 96 0 0 1 183.75637346961554 146.91342988120013 L 162.9694009352546 134.9120974141508 A 72 72 1 0 0 169.21267123556444 119.83950958158167 Z" fill="rgb(27, 137, 123, .8)" stroke="rgb(27, 137, 123, 1)" stroke-width="1  " stroke-linejoin="" stroke-linecap=""></path><path d="M 182.5064087905871 149.07843221294394 A 96 96 0 0 1 168.76035512627794 166.9926381247085 L 151.78785491405677 150.02017676298843 A 72 72 1 0 0 161.71946372767894 137.07705216394265 Z" fill="rgb(27, 137, 123, .8)" stroke="rgb(27, 137, 123, 1)" stroke-width="1  " stroke-linejoin="" stroke-linecap=""></path><path d="M 166.99263812470855 168.76035512627786 A 96 96 0 0 1 149.078432212944 182.50640879058705 L 137.0770521639427 161.7194637276789 A 72 72 1 0 0 150.02017676298846 151.7878549140567 Z" fill="rgb(27, 137, 123, .8)" stroke="rgb(27, 137, 123, 1)" stroke-width="1  " stroke-linejoin="" stroke-linecap=""></path><path d="M 146.91342988120022 183.75637346961548 A 96 96 0 0 1 126.05189525024198 192.3975040456744 L 119.83950958158174 169.21267123556441 A 72 72 1 0 0 134.91209741415085 162.96940093525458 Z" fill="rgb(177, 109, 68, .8)" stroke="rgb(177, 109, 68, 1)" stroke-width="1  " stroke-linejoin="" stroke-linecap=""></path><path d="M 123.6371489193966 193.04453337495045 A 96 96 0 0 1 101.24996467902851 195.9918620941441 L 101.24993720757573 171.98914957809347 A 72 72 1 0 0 117.42481632150772 169.85968634457015 Z" fill="rgb(177, 109, 68, .8)" stroke="rgb(177, 109, 68, 1)" stroke-width="1  " stroke-linejoin="" stroke-linecap=""></path><path d="M 98.75003532097162 195.9918620941441 A 96 96 0 0 1 76.3628510806035 193.04453337495048 L 82.57518367849235 169.85968634457015 A 72 72 1 0 0 98.75006279242433 171.98914957809347 Z" fill="rgb(177, 109, 68, .8)" stroke="rgb(177, 109, 68, 1)" stroke-width="1  " stroke-linejoin="" stroke-linecap=""></path><path d="M 73.94810474975813 192.39750404567445 A 96 96 0 0 1 53.08657011879987 183.75637346961554 L 65.08790258584924 162.96940093525464 A 72 72 1 0 0 80.16049041841835 169.21267123556444 Z" fill="rgb(177, 109, 68, .8)" stroke="rgb(177, 109, 68, 1)" stroke-width="1  " stroke-linejoin="" stroke-linecap=""></path><path d="M 50.92156778705609 182.5064087905871 A 96 96 0 0 1 33.00736187529151 168.76035512627794 L 49.97982323701159 151.78785491405677 A 72 72 1 0 0 62.92294783605737 161.71946372767894 Z" fill="rgb(177, 109, 68, .8)" stroke="rgb(177, 109, 68, 1)" stroke-width="1  " stroke-linejoin="" stroke-linecap=""></path><path d="M 31.239644873722142 166.99263812470855 A 96 96 0 0 1 17.493591209412955 149.078432212944 L 38.28053627232109 137.0770521639427 A 72 72 1 0 0 48.21214508594331 150.0201767629885 Z" fill="rgb(177, 109, 68, .8)" stroke="rgb(177, 109, 68, 1)" stroke-width="1  " stroke-linejoin="" stroke-linecap=""></path><path d="M 16.24362653038449 146.9134298812002 A 96 96 0 0 1 7.60249595432559 126.05189525024197 L 30.78732876443557 119.83950958158171 A 72 72 1 0 0 37.030599064745424 134.91209741415088 Z" fill="rgb(177, 109, 68, .8)" stroke="rgb(177, 109, 68, 1)" stroke-width="1  " stroke-linejoin="" stroke-linecap=""></path><path d="M 6.955466625049553 123.6371489193966 A 96 96 0 0 1 4.0081379058558895 101.24996467902851 L 28.01085042190651 101.24993720757573 A 72 72 1 0 0 30.14031365542988 117.42481632150778 Z" fill="rgb(239, 101, 57, .8)" stroke="rgb(239, 101, 57, 1)" stroke-width="1  " stroke-linejoin="" stroke-linecap=""></path><path d="M 4.0081379058558895 98.75003532097163 A 96 96 0 0 1 6.95546662504951 76.36285108060355 L 30.140313655429864 82.57518367849234 A 72 72 1 0 0 28.01085042190651 98.75006279242434 Z" fill="rgb(239, 101, 57, .8)" stroke="rgb(239, 101, 57, 1)" stroke-width="1  " stroke-linejoin="" stroke-linecap=""></path><path d="M 7.602495954325562 73.94810474975809 A 96 96 0 0 1 16.243626530384446 53.08657011879987 L 37.03059906474537 65.08790258584924 A 72 72 1 0 0 30.787328764435543 80.16049041841836 Z" fill="rgb(239, 101, 57, .8)" stroke="rgb(239, 101, 57, 1)" stroke-width="1  " stroke-linejoin="" stroke-linecap=""></path><path d="M 17.493591209412884 50.92156778705609 A 96 96 0 0 1 31.239644873722057 33.00736187529152 L 48.21214508594325 49.97982323701156 A 72 72 1 0 0 38.28053627232106 62.922947836057375 Z" fill="rgb(239, 101, 57, .8)" stroke="rgb(239, 101, 57, 1)" stroke-width="1  " stroke-linejoin="" stroke-linecap=""></path><path d="M 33.00736187529141 31.239644873722185 A 96 96 0 0 1 50.92156778705604 17.493591209412926 L 62.922947836057325 38.28053627232108 A 72 72 1 0 0 49.9798232370115 48.21214508594331 Z" fill="rgb(239, 101, 57, .8)" stroke="rgb(239, 101, 57, 1)" stroke-width="1  " stroke-linejoin="" stroke-linecap=""></path><path d="M 53.08657011879978 16.243626530384518 A 96 96 0 0 1 73.94810474975802 7.60249595432559 L 80.16049041841829 30.78732876443557 A 72 72 1 0 0 65.08790258584912 37.030599064745424 Z" fill="rgb(239, 101, 57, .8)" stroke="rgb(239, 101, 57, 1)" stroke-width="1  " stroke-linejoin="" stroke-linecap=""></path><path d="M 76.36285108060336 6.955466625049567 A 96 96 0 0 1 98.75003532097148 4.0081379058558895 L 98.7500627924242 28.01085042190651 A 72 72 1 0 0 82.57518367849222 30.14031365542988 Z" fill="rgb(239, 101, 57, .8)" stroke="rgb(239, 101, 57, 1)" stroke-width="1  " stroke-linejoin="" stroke-linecap=""></path><path d="M 101.24993260896042 30.51124070417535 A 69.5 69.5 0 0 1 135.82685304029067 159.55406452316598 L 123.82381096335705 138.76436548148607 A 45.5 45.5 1 0 0 101.24984276848231 54.51716924976995 Z" fill="rgb(27, 137, 123, .8)" stroke="rgb(27, 137, 123, 1)" stroke-width="1  " stroke-linejoin="" stroke-linecap=""></path><path d="M 133.66190625553395 160.80399713212648 A 69.5 69.5 0 0 1 33.202519123672076 119.19235651442014 L 56.39044223748509 112.97907823221186 A 45.5 45.5 1 0 0 121.65901978687305 140.01420824996842 Z" fill="rgb(177, 109, 68, .8)" stroke="rgb(177, 109, 68, 1)" stroke-width="1  " stroke-linejoin="" stroke-linecap=""></path><path d="M 32.55550639508475 116.77767213818849 A 69.5 69.5 0 0 1 98.75006739103941 30.51124070417535 L 98.75015723151762 54.51716924976995 A 45.5 45.5 1 0 0 55.7434760137513 110.56456741445636 Z" fill="rgb(239, 101, 57, .8)" stroke="rgb(239, 101, 57, 1)" stroke-width="1  " stroke-linejoin="" stroke-linecap=""></path><path d="M 101.24982598430253 56.76806232645867 A 43.25 43.25 0 0 1 143.23193767354132 98.75017401569743 L 119.20942984297233 98.75087826537029 A 19.25 19.25 1 0 0 101.2491217346297 80.79057015702767 Z" fill="rgb(255, 255, 255, .8)" stroke="rgb(255, 255, 255, 1)" stroke-width="1  " stroke-linejoin="" stroke-linecap=""></path><path d="M 143.23193767354132 101.24982598430253 A 43.25 43.25 0 0 1 101.2498259843025 143.23193767354132 L 101.24912173462971 119.20942984297233 A 19.25 19.25 1 0 0 119.20942984297233 101.2491217346297 Z" fill="rgb(255, 255, 255, .8)" stroke="rgb(255, 255, 255, 1)" stroke-width="1  " stroke-linejoin="" stroke-linecap=""></path><path d="M 98.75017401569755 143.23193767354132 A 43.25 43.25 0 0 1 56.76806232645867 101.24982598430257 L 80.79057015702767 101.24912173462971 A 19.25 19.25 1 0 0 98.75087826537032 119.20942984297233 Z" fill="rgb(255, 255, 255, .8)" stroke="rgb(255, 255, 255, 1)" stroke-width="1  " stroke-linejoin="" stroke-linecap=""></path><path d="M 56.76806232645867 98.75017401569747 A 43.25 43.25 0 0 1 98.7501740156975 56.76806232645867 L 98.75087826537025 80.79057015702767 A 19.25 19.25 1 0 0 80.79057015702767 98.75087826537032 Z" fill="rgb(255, 255, 255, .8)" stroke="rgb(255, 255, 255, 1)" stroke-width="1  " stroke-linejoin="" stroke-linecap=""></path><path d="M 101.24890632933061 82.79527004046393 A 17.25 17.25 0 1 1 98.75109367066939 82.79527004046393 Z" fill="rgb(40, 40, 40, .8)" stroke="rgb(40, 40, 40, 1)" stroke-width="0" stroke-linejoin="" stroke-linecap=""></path></svg>