

<svg xmlns="http://www.w3.org/2000/svg" width="200" height="200"><path d="M 101.99983539501088 10.02222130774254 A 90 90 0 0 1 121.35627010520801 12.57054428172735 L 113.58902228129585 41.55910273243193 A 60 60 1 0 0 101.99962965020522 40.03333024702789 Z" stroke="none" fill="rgba(27, 137, 122, .8)" data-cx="109.78946441650386" data-cy="25.64163539696422"></path><path d="M 125.21965541794401 13.605735256325218 A 90 90 0 0 1 143.256981090662 21.077040178905435 L 128.25160480124774 47.06752578847163 A 60 60 1 0 0 117.45201012558906 42.594187205681536 Z" stroke="none" fill="rgba(27, 137, 122, .8)" data-cx="128.70125742738173" data-cy="30.709035061653495"></path><path d="M 146.72079760159542 23.076875573916297 A 90 90 0 0 1 162.20980030032862 34.962005361533215 L 140.988887141979 56.1832094869774 A 60 60 1 0 0 131.71506495172437 49.06715543867685 Z" stroke="none" fill="rgba(27, 137, 122, .8)" data-cx="145.65710717565403" data-cy="40.498499478157356"></path><path d="M 165.03799463846676 37.79019969967136 A 90 90 0 0 1 176.9231244260837 53.27920239840454 L 150.93284456132312 68.28493504827563 A 60 60 1 0 0 143.8167905130226 59.01111285802097 Z" stroke="none" fill="rgba(27, 137, 122, .8)" data-cx="159.50150052184262" data-cy="54.34289282434593"></path><path d="M 178.92295982109457 56.743018909337955 A 90 90 0 0 1 186.39426474367477 74.78034458205595 L 157.40581279431845 82.54798987441093 A 60 60 1 0 0 152.93247421152836 71.74839519875223 Z" stroke="none" fill="rgba(27, 137, 122, .8)" data-cx="169.2909649383465" data-cy="71.29874257261824"></path><path d="M 187.42945571827264 78.64372989479196 A 90 90 0 0 1 189.97777869225746 98.00016460498908 L 159.9666697529721 98.00037034979475 A 60 60 1 0 0 158.44089726756806 86.41097771870412 Z" stroke="none" fill="rgba(27, 137, 122, .8)" data-cx="174.3583646030358" data-cy="90.2105355834961"></path><path d="M 189.97777869225746 101.99983539501083 A 90 90 0 0 1 187.42945571827266 121.35627010520797 L 158.44089726756806 113.58902228129583 A 60 60 1 0 0 159.9666697529721 101.9996296502052 Z" stroke="none" fill="rgba(27, 137, 122, .8)" data-cx="174.3583646030358" data-cy="109.78946441650383"></path><path d="M 186.3942647436748 125.219655417944 A 90 90 0 0 1 178.9229598210946 143.256981090662 L 152.9324742115284 128.25160480124774 A 60 60 1 0 0 157.40581279431848 117.45201012558903 Z" stroke="none" fill="rgba(27, 137, 122, .8)" data-cx="169.29096493834652" data-cy="128.7012574273817"></path><path d="M 176.92312442608372 146.7207976015954 A 90 90 0 0 1 165.0379946384668 162.20980030032857 L 143.81679051302262 140.98888714197898 A 60 60 1 0 0 150.93284456132318 131.71506495172434 Z" stroke="none" fill="rgba(27, 137, 122, .8)" data-cx="159.50150052184267" data-cy="145.657107175654"></path><path d="M 162.20980030032868 165.03799463846673 A 90 90 0 0 1 146.7207976015955 176.92312442608363 L 131.71506495172443 150.93284456132312 A 60 60 1 0 0 140.98888714197906 143.81679051302257 Z" stroke="none" fill="rgba(27, 137, 122, .8)" data-cx="145.65710717565412" data-cy="159.5015005218426"></path><path d="M 101.9995748570466 44.03571048971436 A 56 56 0 0 1 129.71382737811376 147.46670899213106 L 114.69190059902635 121.4510619035126 A 26 26 1 0 0 101.99802819687635 74.07688515389235 Z" stroke="none" fill="rgba(27, 137, 122, .8)" data-cx="139.6029588778518" data-cy="89.38841915079666"></path><path d="M 143.2569810906621 178.92295982109454 A 90 90 0 0 1 125.2196554179441 186.39426474367474 L 117.45201012558911 157.40581279431845 A 60 60 1 0 0 128.2516048012478 152.93247421152836 Z" stroke="none" fill="rgba(177, 110, 68, .8)" data-cx="128.7012574273818" data-cy="169.29096493834646"></path><path d="M 121.35627010520811 187.42945571827264 A 90 90 0 0 1 101.99983539501098 189.97777869225746 L 101.99962965020529 159.9666697529721 A 60 60 1 0 0 113.58902228129591 158.44089726756806 Z" stroke="none" fill="rgba(177, 110, 68, .8)" data-cx="109.78946441650396" data-cy="174.35836460303577"></path><path d="M 98.00016460498925 189.97777869225746 A 90 90 0 0 1 78.6437298947921 187.42945571827266 L 86.41097771870423 158.4408972675681 A 60 60 1 0 0 98.00037034979486 159.9666697529721 Z" stroke="none" fill="rgba(177, 110, 68, .8)" data-cx="90.21053558349625" data-cy="174.3583646030358"></path><path d="M 74.78034458205613 186.39426474367482 A 90 90 0 0 1 56.74301890933809 178.92295982109465 L 71.74839519875233 152.93247421152842 A 60 60 1 0 0 82.54798987441104 157.40581279431848 Z" stroke="none" fill="rgba(177, 110, 68, .8)" data-cx="71.2987425726184" data-cy="169.29096493834658"></path><path d="M 53.27920239840472 176.9231244260838 A 90 90 0 0 1 37.79019969967148 165.0379946384669 L 59.01111285802106 143.81679051302268 A 60 60 1 0 0 68.28493504827574 150.9328445613232 Z" stroke="none" fill="rgba(177, 110, 68, .8)" data-cx="54.34289282434605" data-cy="159.50150052184273"></path><path d="M 34.962005361533386 162.2098003003288 A 90 90 0 0 1 23.076875573916396 146.7207976015956 L 49.06715543867692 131.71506495172446 A 60 60 1 0 0 56.183209486977496 140.98888714197912 Z" stroke="none" fill="rgba(177, 110, 68, .8)" data-cx="40.498499478157456" data-cy="145.65710717565418"></path><path d="M 21.077040178905534 143.2569810906622 A 90 90 0 0 1 13.605735256325275 125.21965541794422 L 42.59418720568158 117.45201012558918 A 60 60 1 0 0 47.067525788471706 128.25160480124788 Z" stroke="none" fill="rgba(177, 110, 68, .8)" data-cx="30.709035061653566" data-cy="128.7012574273819"></path><path d="M 126.2504621321718 149.46628384917767 A 56 56 0 0 1 46.4601754672085 116.41606496691267 L 75.4773216222905 108.6393428675692 A 26 26 1 0 0 111.23121424708128 123.44909010038893 Z" stroke="none" fill="rgba(177, 110, 68, .8)" data-cx="84.3099792730313" data-cy="137.87906083296275"></path><path d="M 12.570544281727393 121.35627010520824 A 90 90 0 0 1 10.02222130774254 101.99983539501112 L 40.03333024702789 101.99962965020538 A 60 60 1 0 0 41.55910273243197 113.58902228129601 Z" stroke="none" fill="rgba(241, 100, 57, 1" data-cx="25.641635396964247" data-cy="109.78946441650406"></path><path d="M 10.022221307742527 98.00016460498938 A 90 90 0 0 1 12.57054428172728 78.64372989479224 L 41.559102732431896 86.41097771870432 A 60 60 1 0 0 40.03333024702789 98.00037034979496 Z" stroke="none" fill="rgba(241, 100, 57, 1" data-cx="25.64163539696419" data-cy="90.21053558349635"></path><path d="M 13.605735256325147 74.78034458205624 A 90 90 0 0 1 21.077040178905293 56.74301890933823 L 47.06752578847154 71.74839519875243 A 60 60 1 0 0 42.594187205681486 82.54798987441113 Z" stroke="none" fill="rgba(241, 100, 57, 1" data-cx="30.70903506165341" data-cy="71.2987425726185"></path><path d="M 23.07687557391614 53.279202398404834 A 90 90 0 0 1 34.962005361533016 37.790199699671604 L 56.183209486977255 59.01111285802115 A 60 60 1 0 0 49.06715543867674 68.28493504827581 Z" stroke="none" fill="rgba(241, 100, 57, 1" data-cx="40.49849947815721" data-cy="54.342892824346166"></path><path d="M 37.79019969967112 34.96200536153347 A 90 90 0 0 1 53.279202398404266 23.076875573916496 L 68.28493504827543 49.06715543867698 A 60 60 1 0 0 59.01111285802082 56.18320948697755 Z" stroke="none" fill="rgba(241, 100, 57, 1" data-cx="54.342892824345725" data-cy="40.49849947815754"></path><path d="M 56.74301890933765 21.077040178905605 A 90 90 0 0 1 74.78034458205562 13.605735256325332 L 82.5479898744107 42.594187205681614 A 60 60 1 0 0 71.74839519875204 47.067525788471755 Z" stroke="none" fill="rgba(241, 100, 57, 1" data-cx="71.29874257261798" data-cy="30.70903506165361"></path><path d="M 78.6437298947916 12.570544281727436 A 90 90 0 0 1 98.00016460498871 10.02222130774254 L 98.00037034979451 40.0333302470279 A 60 60 1 0 0 86.41097771870388 41.559102732431995 Z" stroke="none" fill="rgba(241, 100, 57, 1" data-cx="90.2105355834958" data-cy="25.64163539696426"></path><path d="M 45.42511935698489 112.55318297487352 A 56 56 0 0 1 98.0004251429535 44.03571048971436 L 98.0019718031237 74.07688515389233 A 26 26 1 0 0 74.4430661222836 104.77944879353589 Z" stroke="none" fill="rgba(241, 100, 57, 1" data-cx="67.4725130480594" data-cy="75.04078141064241"></path><path d="M 116.90437742549423 85.92015540368286 A 22 22 0 0 1 116.90437742549423 114.07984459631714 L 102.82453282917709 100 Z" stroke="none" fill="#f0f0f0" data-cx="112.41226641458854" data-cy="100"></path><path d="M 114.07984459631714 116.90437742549423 A 22 22 0 0 1 85.92015540368286 116.90437742549423 L 100 102.82453282917709 Z" stroke="none" fill="#f0f0f0" data-cx="100" data-cy="112.41226641458854"></path><path d="M 83.09562257450577 114.07984459631714 A 22 22 0 0 1 83.09562257450577 85.92015540368286 L 97.17546717082291 100 Z" stroke="none" fill="#f0f0f0" data-cx="87.58773358541146" data-cy="100"></path><path d="M 85.92015540368286 83.09562257450577 A 22 22 0 0 1 114.07984459631714 83.09562257450577 L 100 97.17546717082291 Z" stroke="none" fill="#f0f0f0" data-cx="100" data-cy="87.58773358541146"></path></svg>
