<svg xmlns="http://www.w3.org/2000/svg" width="200" height="200"><path d="M 102.49967851034579 10.034719989626467 A 90 90 0 0 1 130.1683268566048 15.20688674973033 L 119.32518192234195 43.19738259843665 A 60 60 1 0 0 102.49927668316116 40.052075798564914 Z" stroke="none" fill="rgb(235, 28, 44, .8)" data-cx="113.78121383624277" data-cy="26.27701752370737" data-d="M 102.49967851034579 10.034719989626467 A 90 90 0 1 1 130.1683268566048 15.20688674973033 L 130.1683268566048 -61.38629431461676 Z"></path><path d="M 134.83008844327736 17.012862809749393 A 90 90 0 0 1 158.76193251310093 31.83083330914357 L 138.53966762470307 54.01419763255822 A 60 60 1 0 0 123.98619412363315 45.003068345012316 Z" stroke="none" fill="rgb(209, 159, 40, .8)" data-cx="139.48241221580167" data-cy="36.233714820278934" data-d="M 134.83008844327736 17.012862809749393 A 90 90 0 1 1 158.76193251310093 31.83083330914357 L 186.4305808593599 -39.590180995099566 Z"></path><path d="M 162.45650193176175 35.198878355017314 A 90 90 0 0 1 179.4194135725943 57.661403568549574 L 152.54915765867753 71.04165009253028 A 60 60 1 0 0 142.2336431356186 57.38170125998438 Z" stroke="none" fill="rgb(38, 155, 71, .8)" data-cx="159.85129204601796" data-cy="54.80240227155576" data-d="M 162.45650193176175 35.198878355017314 A 90 90 0 1 1 179.4194135725943 57.661403568549574 L 231.01990598867684 1.0583597637005937 Z"></path><path d="M 181.64781875093723 62.13664445385089 A 90 90 0 0 1 189.35086275094613 89.21003588228467 L 159.46159276591297 91.98008817126235 A 60 60 1 0 0 154.77720461744332 75.51617157594127 Z" stroke="none" fill="rgb(194, 31, 50, .8)" data-cx="172.1369232379614" data-cy="79.47527574459379" data-d="M 181.64781875093723 62.13664445385089 A 90 90 0 1 1 189.35086275094613 89.21003588228467 L 257.9142668078613 55.06951729096794 Z"></path><path d="M 189.8121452216167 94.18806652728779 A 90 90 0 0 1 187.21498280456046 122.21591263937238 L 158.34341028205205 114.00165978233099 A 60 60 1 0 0 159.92280108471329 96.95731859014404 Z" stroke="none" fill="rgb(239, 62, 42, .8)" data-cx="174.68006322212761" data-cy="106.92012695974763" data-d="M 189.8121452216167 94.18806652728779 A 90 90 0 1 1 187.21498280456046 122.21591263937238 L 263.4814308614845 115.14878547648942 Z"></path><path d="M 185.84684381384014 127.0244224212496 A 90 90 0 0 1 173.30023615551596 152.22140729189127 L 149.3456269476032 134.13222965392063 A 60 60 1 0 0 156.9754912217894 118.80939658882758 Z" stroke="none" fill="rgb(0, 173, 217, .8)" data-cx="167.1372468516297" data-cy="133.43037668324035" data-d="M 185.84684381384014 127.0244224212496 A 90 90 0 1 1 173.30023615551596 152.22140729189127 L 246.96952179538366 173.18212624109287 Z"></path><path d="M 170.28745045522138 156.21098031972758 A 90 90 0 0 1 149.48588644303896 175.1741115208331 L 133.68344326032235 149.6530527775347 A 60 60 1 0 0 146.33332555726724 138.12116135172545 Z" stroke="none" fill="rgb(252, 182, 21, .8)" data-cx="150.5271732734918" data-cy="155.4256687915494" data-d="M 170.28745045522138 156.21098031972758 A 90 90 0 1 1 149.48588644303896 175.1741115208331 L 210.60856442458257 221.33181534067646 Z"></path><path d="M 145.23534743641684 177.80593385023184 A 90 90 0 0 1 118.98819355566674 187.97413543475454 L 113.47212391433264 158.46795598647918 A 60 60 1 0 0 129.43358753441618 152.28445203742564 Z" stroke="none" fill="rgb(142, 23, 55, .8)" data-cx="127.09312496403649" data-cy="169.93541720532667" data-d="M 145.23534743641684 177.80593385023184 A 90 90 0 1 1 118.98819355566674 187.97413543475454 L 159.3093075250279 253.09497045570333 Z"></path><path d="M 114.07396008861105 188.89276487669952 A 90 90 0 0 1 85.92603991138897 188.89276487669952 L 91.44131958209663 159.3864377573213 A 60 60 1 0 0 108.55868041790339 159.3864377573213 Z" stroke="none" fill="rgb(243, 108, 36, .8)" data-cx="100" data-cy="175" data-d="M 114.07396008861105 188.89276487669952 A 90 90 0 1 1 85.92603991138897 188.89276487669952 L 100 264.18180148217107 Z"></path><path d="M 81.01180644433332 187.97413543475454 A 90 90 0 0 1 54.764652563583205 177.8059338502319 L 70.56641246558382 152.28445203742564 A 60 60 1 0 0 86.52787608566739 158.46795598647918 Z" stroke="none" fill="rgb(225, 21, 132, .8)" data-cx="72.90687503596354" data-cy="169.9354172053267" data-d="M 81.01180644433332 187.97413543475454 A 90 90 0 1 1 54.764652563583205 177.8059338502319 L 40.690692474972174 253.09497045570345 Z"></path><path d="M 50.51411355696105 175.1741115208331 A 90 90 0 0 1 29.712549544778625 156.21098031972758 L 53.66667444273277 138.12116135172545 A 60 60 1 0 0 66.31655673967767 149.6530527775347 Z" stroke="none" fill="rgb(248, 156, 36, .8)" data-cx="49.47282672650821" data-cy="155.42566879154944" data-d="M 50.51411355696105 175.1741115208331 A 90 90 0 1 1 29.712549544778625 156.21098031972758 L -10.608564424582532 221.33181534067646 Z"></path><path d="M 26.699763844484096 152.2214072918913 A 90 90 0 0 1 14.153156186159876 127.02442242124962 L 43.02450877821061 118.80939658882761 A 60 60 1 0 0 50.65437305239684 134.13222965392066 Z" stroke="none" fill="rgb(207, 141, 41, .8)" data-cx="32.86275314837033" data-cy="133.43037668324038" data-d="M 26.699763844484096 152.2214072918913 A 90 90 0 1 1 14.153156186159876 127.02442242124962 L -46.969521795383706 173.18212624109296 Z"></path><path d="M 12.785017195439565 122.21591263937242 A 90 90 0 0 1 10.187854778383297 94.18806652728783 L 40.0771989152867 96.95731859014407 A 60 60 1 0 0 41.65658971794798 114.00165978233103 Z" stroke="none" fill="rgb(70, 118, 59, .8)" data-cx="25.319936777872414" data-cy="106.92012695974768" data-d="M 12.785017195439565 122.21591263937242 A 90 90 0 1 1 10.187854778383297 94.18806652728783 L -63.48143086148448 115.1487854764895 Z"></path><path d="M 10.649137249053851 89.21003588228464 A 90 90 0 0 1 18.352181249062767 62.136644453850856 L 45.22279538255669 75.51617157594124 A 60 60 1 0 0 40.53840723408703 91.98008817126234 Z" stroke="none" fill="rgb(0, 124, 187, .8)" data-cx="27.863076762038574" data-cy="79.47527574459376" data-d="M 10.649137249053851 89.21003588228464 A 90 90 0 1 1 18.352181249062767 62.136644453850856 L -57.914266807861274 55.06951729096788 Z"></path><path d="M 20.58058642740572 57.66140356854957 A 90 90 0 0 1 37.54349806823828 35.1988783550173 L 57.76635686438142 57.38170125998438 A 60 60 1 0 0 47.45084234132246 71.04165009253028 Z" stroke="none" fill="rgb(62, 175, 73, .8)" data-cx="40.14870795398205" data-cy="54.802402271555756" data-d="M 20.58058642740572 57.66140356854957 A 90 90 0 1 1 37.54349806823828 35.1988783550173 L -31.01990598867691 1.0583597637005013 Z"></path><path d="M 41.23806748689905 31.83083330914357 A 90 90 0 0 1 65.16991155672261 17.012862809749407 L 76.01380587636683 45.00306834501232 A 60 60 1 0 0 61.46033237529694 54.01419763255821 Z" stroke="none" fill="rgb(1, 85, 138, .8)" data-cx="60.5175877841983" data-cy="36.23371482027895" data-d="M 41.23806748689905 31.83083330914357 A 90 90 0 1 1 65.16991155672261 17.012862809749407 L 13.56941914064005 -39.59018099509963 Z"></path><path d="M 69.83167314339526 15.206886749730302 A 90 90 0 0 1 97.50032148965428 10.034719989626467 L 97.50072331683887 40.05207579856491 A 60 60 1 0 0 80.6748180776581 43.197382598436626 Z" stroke="none" fill="rgb(24, 53, 103,.8)" data-cx="86.21878616375724" data-cy="26.277017523707357" data-d="M 69.83167314339526 15.206886749730302 A 90 90 0 1 1 97.50032148965428 10.034719989626467 L 69.83167314339534 -61.38629431461679 Z"></path></svg>